HIERARCHY
ROOT Hips
{
	OFFSET 0.000000 0.000000 0.000000
	CHANNELS 6 Xposition Yposition Zposition Zrotation Yrotation Xrotation
	JOINT LHipJoint
	{
		OFFSET 0.000000 0.000000 0.000000
		CHANNELS 3 Zrotation Yrotation Xrotation
		JOINT LeftUpLeg
		{
			OFFSET 1.363060 -1.794630 0.839290
			CHANNELS 3 Zrotation Yrotation Xrotation
			JOINT LeftLeg
			{
				OFFSET 2.448110 -6.726130 0.000000
				CHANNELS 3 Zrotation Yrotation Xrotation
				JOINT LeftFoot
				{
					OFFSET 2.562200 -7.039590 0.000000
					CHANNELS 3 Zrotation Yrotation Xrotation
					JOINT LeftToeBase
					{
						OFFSET 0.157640 -0.433110 2.322550
						CHANNELS 3 Zrotation Yrotation Xrotation
						End Site
						{
							OFFSET 0.000000 0.000000 0.000000
						}
					}
				}
			}
		}
	}
	JOINT RHipJoint
	{
		OFFSET 0.000000 0.000000 0.000000
		CHANNELS 3 Zrotation Yrotation Xrotation
		JOINT RightUpLeg
		{
			OFFSET -1.305520 -1.794630 0.839290
			CHANNELS 3 Zrotation Yrotation Xrotation
			JOINT RightLeg
			{
				OFFSET -2.542530 -6.985550 0.000000
				CHANNELS 3 Zrotation Yrotation Xrotation
				JOINT RightFoot
				{
					OFFSET -2.568260 -7.056230 0.000000
					CHANNELS 3 Zrotation Yrotation Xrotation
					JOINT RightToeBase
					{
						OFFSET -0.164730 -0.452590 2.363150
						CHANNELS 3 Zrotation Yrotation Xrotation
						End Site
						{
							OFFSET 0.000000 0.000000 0.000000
						}
					}
				}
			}
		}
	}
	JOINT LowerBack
	{
		OFFSET 0.000000 0.000000 0.000000
		CHANNELS 3 Zrotation Yrotation Xrotation
		JOINT Spine
		{
			OFFSET 0.028270 2.035590 -0.193380
			CHANNELS 3 Zrotation Yrotation Xrotation
			JOINT Spine1
			{
				OFFSET 0.056720 2.048850 -0.042750
				CHANNELS 3 Zrotation Yrotation Xrotation
				JOINT Neck
				{
					OFFSET 0.000000 0.000000 0.000000
					CHANNELS 3 Zrotation Yrotation Xrotation
					JOINT Neck1
					{
						OFFSET -0.054170 1.746240 0.172020
						CHANNELS 3 Zrotation Yrotation Xrotation
						JOINT Head
						{
							OFFSET 0.104070 1.761360 -0.123970
							CHANNELS 3 Zrotation Yrotation Xrotation
							End Site
							{
								OFFSET 0.000000 0.000000 0.000000
							}
						}
					}
				}
				JOINT LeftShoulder
				{
					OFFSET 0.000000 0.000000 0.000000
					CHANNELS 3 Zrotation Yrotation Xrotation
					JOINT LeftArm
					{
						OFFSET 3.362410 1.200890 -0.311210
						CHANNELS 3 Zrotation Yrotation Xrotation
						JOINT LeftForeArm
						{
							OFFSET 4.983000 -0.000000 -0.000000
							CHANNELS 3 Zrotation Yrotation Xrotation
							JOINT LeftHand
							{
								OFFSET 3.483560 -0.000000 -0.000000
								CHANNELS 3 Zrotation Yrotation Xrotation
								JOINT LeftFingerBase
								{
									OFFSET 0.000000 0.000000 0.000000
									CHANNELS 3 Zrotation Yrotation Xrotation
									JOINT LeftHandIndex1
									{
										OFFSET 0.715260 -0.000000 -0.000000
										CHANNELS 3 Zrotation Yrotation Xrotation
										End Site
										{
											OFFSET 0.000000 0.000000 0.000000
										}
									}
								}
								JOINT LThumb
								{
									OFFSET 0.000000 0.000000 0.000000
									CHANNELS 3 Zrotation Yrotation Xrotation
									End Site
									{
										OFFSET 0.000000 0.000000 0.000000
									}
								}
							}
						}
					}
				}
				JOINT RightShoulder
				{
					OFFSET 0.000000 0.000000 0.000000
					CHANNELS 3 Zrotation Yrotation Xrotation
					JOINT RightArm
					{
						OFFSET -3.136600 1.374050 -0.404650
						CHANNELS 3 Zrotation Yrotation Xrotation
						JOINT RightForeArm
						{
							OFFSET -5.241900 -0.000000 -0.000000
							CHANNELS 3 Zrotation Yrotation Xrotation
							JOINT RightHand
							{
								OFFSET -3.444170 -0.000000 -0.000000
								CHANNELS 3 Zrotation Yrotation Xrotation
								JOINT RightFingerBase
								{
									OFFSET 0.000000 0.000000 0.000000
									CHANNELS 3 Zrotation Yrotation Xrotation
									JOINT RightHandIndex1
									{
										OFFSET -0.622530 -0.000000 -0.000000
										CHANNELS 3 Zrotation Yrotation Xrotation
										End Site
										{
											OFFSET 0.000000 0.000000 0.000000
										}
									}
								}
								JOINT RThumb
								{
									OFFSET 0.000000 0.000000 0.000000
									CHANNELS 3 Zrotation Yrotation Xrotation
									End Site
									{
										OFFSET 0.000000 0.000000 0.000000
									}
								}
							}
						}
					}
				}
			}
		}
	}
}
MOTION
Frames: 9
Frame Time: 0.008333
2.124397 -0.853061 5.509696 7.122211 4.946764 -0.072175 0.422814 0.665966 2.897773 -19.601366 3.103407 21.183968 1.379944 -3.805062 -2.874907 2.048415 -6.154152 -6.985225 -1.783205 0.748357 5.833445 -0.748016 -0.057694 0.348854 -5.710795 12.179057 -35.500847 3.126664 -1.937179 -11.365589 1.585228 -18.906721 7.384501 0.847963 0.514345 6.452522 -10.345708 -3.356079 0.900880 0.621184 -6.943215 3.973422 3.505514 -4.082036 1.393022 -0.821071 0.324516 -1.990925 0.079881 1.470244 2.190452 -0.191138 0.131055 0.147165 0.841483 -1.201741 0.216148 -5.340292 -14.531259 6.769070 1.744450 -3.799904 0.254739 -0.747633 0.126637 -0.719104 -3.503198 0.585744 -4.566741 -0.119812 0.000000 0.000000 2.221753 -36.054596 6.318264 1.723716 -2.538606 -0.462636 4.211956 -15.142361 -28.440308 3.783084 3.693795 3.156360 -0.438525 -0.344734 0.974702 -46.520802 -1.377099 -12.633858 -1.639484 0.000000 0.000000 4.211875 -3.468531 -41.198284
2.193162 -0.840762 5.351118 7.123238 5.167282 -0.012870 0.382486 0.680333 2.937510 -19.802176 3.032557 21.632883 1.346703 -3.822610 -3.239918 2.056978 -6.280602 -6.852768 -1.771093 0.602694 5.457747 -0.732478 -0.044926 0.326526 -5.699675 12.303739 -35.472717 3.192519 -1.844582 -11.666870 1.631553 -18.921633 7.077500 0.805222 0.714452 5.909597 -10.334544 -3.378823 0.875114 0.628283 -6.970509 3.969441 3.528228 -4.104990 1.386580 -0.831776 0.302909 -2.038348 0.083532 1.473237 2.145490 -0.160079 0.108989 0.138606 0.823426 -1.238932 0.214262 -5.388331 -14.611389 6.833304 1.805253 -3.956739 0.209469 -0.746317 0.108918 -0.950505 -3.670536 0.631658 -4.544329 -0.099724 0.000000 0.000000 2.526046 -36.119053 6.374473 1.748187 -2.514210 -0.456242 4.319215 -15.159249 -28.278675 3.758034 3.702812 3.268530 -0.429950 -0.326523 0.995108 -46.147785 -1.134492 -12.441260 -1.632655 0.000000 0.000000 4.656382 -3.263486 -40.712811
2.259089 -0.807373 5.317698 7.132409 5.417546 0.070585 0.367615 0.714599 3.002049 -19.910864 3.043832 22.223015 1.336677 -3.799075 -3.507216 2.080250 -6.378333 -6.694529 -1.756506 0.494494 5.108701 -0.716636 -0.033074 0.283861 -5.750401 12.422060 -35.458496 3.219527 -1.785371 -11.965114 1.683294 -18.887043 6.804921 0.768816 0.889228 5.253122 -10.331452 -3.399256 0.842305 0.635590 -6.999261 3.963167 3.546242 -4.135762 1.359758 -0.859969 0.271500 -2.107350 0.078170 1.466065 2.105294 -0.126478 0.091275 0.137887 0.818008 -1.266733 0.214535 -5.411187 -14.670167 6.992590 1.882200 -4.103179 0.167193 -0.743587 0.093984 -1.232795 -3.864788 0.682817 -4.548669 -0.088147 0.000000 0.000000 2.585606 -36.416008 6.162621 1.737148 -2.518215 -0.464580 4.226820 -15.218739 -28.195881 3.650042 3.639080 3.332444 -0.425805 -0.314536 0.961755 -45.938763 -1.033673 -12.448172 -1.631003 0.000000 0.000000 4.691535 -3.327440 -40.604561
2.329876 -0.791810 5.234008 7.124660 5.626268 0.114756 0.318537 0.726203 3.047551 -20.092699 3.003348 22.651525 1.299904 -3.806110 -3.827064 2.091536 -6.551627 -6.559350 -1.746884 0.379416 4.726266 -0.716665 -0.027345 0.234444 -5.841654 12.509882 -35.505882 3.224609 -1.753806 -12.345835 1.714882 -18.880657 6.511751 0.730292 1.047467 4.609015 -10.317118 -3.424762 0.792573 0.640223 -7.033130 3.942757 3.557164 -4.167091 1.325299 -0.889523 0.235371 -2.189647 0.066719 1.445232 2.047533 -0.127009 0.056681 0.111876 0.794612 -1.303940 0.211486 -5.558341 -14.762877 7.095879 1.943588 -4.254027 0.121942 -0.742438 0.075662 -1.557299 -4.068377 0.767920 -4.544301 -0.074373 0.000000 0.000000 2.739331 -36.492069 6.116283 1.750119 -2.505626 -0.469983 4.205357 -15.235354 -28.048658 3.618018 3.629433 3.432692 -0.417040 -0.297718 0.968802 -45.621712 -0.880879 -12.321157 -1.625542 0.000000 0.000000 4.988356 -3.255429 -40.202991
2.385549 -0.790495 5.103628 7.173924 5.827846 0.138946 0.270811 0.715213 3.084941 -20.295000 2.964820 23.230347 1.287178 -3.778749 -4.065019 2.116256 -6.742676 -6.422692 -1.737065 0.183488 4.287363 -0.718392 -0.018262 0.201220 -5.860602 12.597644 -35.540657 3.223960 -1.741264 -12.613107 1.760174 -18.864037 6.420863 0.697962 1.222678 4.104402 -10.251687 -3.437567 0.768462 0.657561 -7.046031 3.942562 3.584246 -4.180389 1.331365 -0.906743 0.209019 -2.261864 0.053394 1.455742 2.053676 -0.148431 0.008127 0.109695 0.799267 -1.334228 0.213792 -5.625368 -14.824075 7.285865 2.030890 -4.357676 0.084080 -0.737289 0.064143 -1.826978 -4.234373 0.874754 -4.480663 -0.059288 0.000000 0.000000 2.792824 -36.490150 6.028351 1.727453 -2.493231 -0.479355 4.141236 -15.313725 -27.985521 3.627061 3.601578 3.671076 -0.405618 -0.281569 0.983797 -45.333092 -0.789704 -12.158517 -1.621061 0.000000 0.000000 5.364525 -3.111049 -39.739292
2.404595 -0.787920 4.930583 7.231795 6.030091 0.220297 0.278266 0.704969 3.125471 -20.476990 2.940711 23.839012 1.299511 -3.743532 -4.245265 2.169543 -6.884784 -6.313036 -1.730307 -0.024413 3.713113 -0.796077 -0.032837 0.146479 -5.934353 12.630224 -35.628063 3.213593 -1.760761 -12.863250 1.791539 -18.903902 6.448253 0.669255 1.380383 3.617607 -10.195625 -3.466542 0.687167 0.672368 -7.056437 3.928113 3.603726 -4.191219 1.310699 -0.951808 0.166023 -2.328552 0.027546 1.449878 2.065982 -0.200482 -0.044715 0.122131 0.809248 -1.396714 0.208655 -5.841920 -14.927896 7.393484 2.146463 -4.432796 0.047233 -0.728274 0.053022 -2.130402 -4.399234 0.866378 -4.405367 -0.046680 0.000000 0.000000 2.914873 -36.243446 6.104422 1.696150 -2.492084 -0.493520 4.047753 -15.476996 -27.998888 3.647735 3.543148 3.948288 -0.400650 -0.269009 1.000880 -44.866940 -0.638778 -11.777708 -1.611596 0.000000 0.000000 5.470841 -3.082068 -39.981678
2.430355 -0.792938 4.704894 7.205561 6.180077 0.280566 0.263358 0.696513 3.159516 -20.642586 2.946828 24.357883 1.314207 -3.742484 -4.353804 2.229970 -6.951702 -6.149510 -1.713809 -0.033320 3.332978 -0.819054 -0.032977 0.101678 -5.984235 12.697425 -35.639454 3.206260 -1.763405 -13.096349 1.808576 -18.858913 6.452028 0.634724 1.479498 3.217799 -10.131358 -3.488180 0.616115 0.684601 -7.065382 3.895030 3.613151 -4.204258 1.274361 -1.000036 0.122123 -2.348321 0.018585 1.445677 2.079218 -0.273615 -0.091938 0.113043 0.793148 -1.470972 0.200006 -6.062105 -14.986041 7.304827 2.223368 -4.601996 -0.020899 -0.718232 0.036248 -2.511712 -4.572670 0.591198 -4.428667 -0.047463 0.000000 0.000000 2.915020 -36.126652 5.967117 1.683624 -2.478681 -0.498431 4.114857 -15.680227 -28.052666 3.618101 3.436616 4.126988 -0.403631 -0.258994 1.028121 -44.635799 -0.604565 -11.659967 -1.611208 0.000000 0.000000 5.313966 -3.216371 -40.754265
2.462770 -0.777193 4.488420 7.131260 6.288631 0.322554 0.237488 0.699553 3.194933 -20.798662 2.963076 24.923801 1.328007 -3.780457 -4.501226 2.258548 -7.114887 -5.977829 -1.689999 0.014741 3.034518 -0.802562 -0.020828 0.101826 -5.907622 12.808599 -35.582966 3.197996 -1.751637 -13.236998 1.835285 -18.735399 6.584394 0.616770 1.608524 3.038535 -10.004710 -3.493333 0.578935 0.698942 -7.067924 3.863574 3.630686 -4.208943 1.271310 -1.007613 0.107985 -2.310374 0.032759 1.473896 2.136614 -0.313042 -0.119930 0.141334 0.818164 -1.510971 0.197119 -6.144975 -14.991737 7.181838 2.304699 -4.751275 -0.078739 -0.697748 0.039587 -2.659087 -4.631408 0.461349 -4.389824 -0.038070 0.000000 0.000000 3.060519 -35.725849 6.037645 1.683568 -2.457054 -0.498660 4.254367 -15.867086 -28.092876 3.598461 3.335700 4.275561 -0.409014 -0.246879 1.089995 -44.412590 -0.565386 -11.441404 -1.607371 0.000000 0.000000 5.707326 -3.064019 -41.034962
2.488830 -0.691667 4.576911 7.077065 6.491527 0.474380 0.307140 0.774467 3.277183 -20.771889 3.105716 25.688820 1.375087 -3.711851 -4.326749 2.289701 -7.174471 -5.725106 -1.656863 0.098271 2.687380 -0.820921 -0.021005 0.088804 -5.889844 12.864408 -35.571110 3.171171 -1.740138 -13.192448 1.868427 -18.669813 6.656839 0.584989 1.672226 2.916772 -9.891069 -3.509309 0.518996 0.703846 -7.075533 3.801706 3.633718 -4.208353 1.281104 -1.059693 0.063727 -2.268128 0.023506 1.451821 2.137145 -0.373587 -0.162034 0.137277 0.801653 -1.572520 0.186767 -6.259254 -14.990094 6.848927 2.354140 -4.934164 -0.153930 -0.686860 0.031789 -2.946558 -4.715954 0.387956 -4.376623 -0.021668 0.000000 0.000000 3.262051 -35.276901 6.044187 1.658223 -2.461098 -0.504574 4.380974 -16.132469 -28.224653 3.633922 3.227511 4.386218 -0.416518 -0.239356 1.149719 -44.596256 -0.645837 -11.392467 -1.609587 0.000000 0.000000 5.798639 -3.038962 -41.303864
